{
    "asset" : {
        "generator" : "Khronos glTF Blender I/O v1.7.33",
        "version" : "2.0"
    },
    "scene" : 0,
    "scenes" : [
        {
            "name" : "Scene",
            "nodes" : [
                0
            ]
        }
    ],
    "nodes" : [
        {
            "mesh" : 0,
            "name" : "LowPoly Tree .026",
            "rotation" : [
                0.7071068286895752,
                0,
                0,
                0.7071067094802856
            ],
            "scale" : [
                0.47254282236099243,
                0.47254282236099243,
                0.47254282236099243
            ],
            "translation" : [
                8.560491561889648,
                1.5272666215896606,
                -0.9740908145904541
            ]
        }
    ],
    "materials" : [
        {
            "doubleSided" : true,
            "name" : "Material.009",
            "pbrMetallicRoughness" : {
                "baseColorFactor" : [
                    0.14125940203666687,
                    0.06254502385854721,
                    0.019963327795267105,
                    1
                ],
                "metallicFactor" : 0,
                "roughnessFactor" : 0.5
            }
        },
        {
            "doubleSided" : true,
            "name" : "Material.008",
            "pbrMetallicRoughness" : {
                "baseColorFactor" : [
                    0.045179951936006546,
                    0.1878160536289215,
                    0.03029748611152172,
                    1
                ],
                "metallicFactor" : 0,
                "roughnessFactor" : 0.5
            }
        },
        {
            "doubleSided" : true,
            "name" : "Material.010",
            "pbrMetallicRoughness" : {
                "baseColorFactor" : [
                    0.020875999704003334,
                    0.07297182828187943,
                    0.014843707904219627,
                    1
                ],
                "metallicFactor" : 0,
                "roughnessFactor" : 0.5
            }
        }
    ],
    "meshes" : [
        {
            "name" : "Mesh.009",
            "primitives" : [
                {
                    "attributes" : {
                        "POSITION" : 0,
                        "NORMAL" : 1,
                        "TEXCOORD_0" : 2
                    },
                    "indices" : 3,
                    "material" : 0
                },
                {
                    "attributes" : {
                        "POSITION" : 4,
                        "NORMAL" : 5,
                        "TEXCOORD_0" : 6
                    },
                    "indices" : 7,
                    "material" : 1
                },
                {
                    "attributes" : {
                        "POSITION" : 8,
                        "NORMAL" : 9,
                        "TEXCOORD_0" : 10
                    },
                    "indices" : 11,
                    "material" : 2
                }
            ]
        }
    ],
    "accessors" : [
        {
            "bufferView" : 0,
            "componentType" : 5126,
            "count" : 1446,
            "max" : [
                1.9747130870819092,
                2.7099907398223877,
                3.236480712890625
            ],
            "min" : [
                -1.5628714561462402,
                -2.1887476444244385,
                -0.5548990964889526
            ],
            "type" : "VEC3"
        },
        {
            "bufferView" : 1,
            "componentType" : 5126,
            "count" : 1446,
            "type" : "VEC3"
        },
        {
            "bufferView" : 2,
            "componentType" : 5126,
            "count" : 1446,
            "type" : "VEC2"
        },
        {
            "bufferView" : 3,
            "componentType" : 5123,
            "count" : 1836,
            "type" : "SCALAR"
        },
        {
            "bufferView" : 4,
            "componentType" : 5126,
            "count" : 10738,
            "max" : [
                2.127437114715576,
                2.0563461780548096,
                1.2360063791275024
            ],
            "min" : [
                -2.046576499938965,
                -2.3849008083343506,
                -1.5867021083831787
            ],
            "type" : "VEC3"
        },
        {
            "bufferView" : 5,
            "componentType" : 5126,
            "count" : 10738,
            "type" : "VEC3"
        },
        {
            "bufferView" : 6,
            "componentType" : 5126,
            "count" : 10738,
            "type" : "VEC2"
        },
        {
            "bufferView" : 7,
            "componentType" : 5123,
            "count" : 11214,
            "type" : "SCALAR"
        },
        {
            "bufferView" : 8,
            "componentType" : 5126,
            "count" : 13806,
            "max" : [
                2.382850170135498,
                2.777125358581543,
                1.1721014976501465
            ],
            "min" : [
                -2.415224552154541,
                -2.1012110710144043,
                -1.4191066026687622
            ],
            "type" : "VEC3"
        },
        {
            "bufferView" : 9,
            "componentType" : 5126,
            "count" : 13806,
            "type" : "VEC3"
        },
        {
            "bufferView" : 10,
            "componentType" : 5126,
            "count" : 13806,
            "type" : "VEC2"
        },
        {
            "bufferView" : 11,
            "componentType" : 5123,
            "count" : 14418,
            "type" : "SCALAR"
        }
    ],
    "bufferViews" : [
        {
            "buffer" : 0,
            "byteLength" : 17352,
            "byteOffset" : 0
        },
        {
            "buffer" : 0,
            "byteLength" : 17352,
            "byteOffset" : 17352
        },
        {
            "buffer" : 0,
            "byteLength" : 11568,
            "byteOffset" : 34704
        },
        {
            "buffer" : 0,
            "byteLength" : 3672,
            "byteOffset" : 46272
        },
        {
            "buffer" : 0,
            "byteLength" : 128856,
            "byteOffset" : 49944
        },
        {
            "buffer" : 0,
            "byteLength" : 128856,
            "byteOffset" : 178800
        },
        {
            "buffer" : 0,
            "byteLength" : 85904,
            "byteOffset" : 307656
        },
        {
            "buffer" : 0,
            "byteLength" : 22428,
            "byteOffset" : 393560
        },
        {
            "buffer" : 0,
            "byteLength" : 165672,
            "byteOffset" : 415988
        },
        {
            "buffer" : 0,
            "byteLength" : 165672,
            "byteOffset" : 581660
        },
        {
            "buffer" : 0,
            "byteLength" : 110448,
            "byteOffset" : 747332
        },
        {
            "buffer" : 0,
            "byteLength" : 28836,
            "byteOffset" : 857780
        }
    ],
    "buffers" : [
        {
            "byteLength" : 886616,
            "uri" : "data:application/octet-stream;base64,"
        }
    ]
}
